<?xml version="1.0" encoding="UTF-8" standalone="no"?>
<!-- Generator: Adobe Illustrator 16.0.0, SVG Export Plug-In . SVG Version: 6.00 Build 0)  -->

<svg
   version="1.1"
   id="Laag_1"
   x="0px"
   y="0px"
   width="128"
   height="128"
   viewBox="0 0 128 128"
   enable-background="new 0 0 550 400"
   xml:space="preserve"
   sodipodi:docname="original_light.svg"
   inkscape:version="1.1.2 (1:1.1+202202050852+0a00cf5339)"
   inkscape:export-filename="/home/afrm/Desktop/AnnotationsRestored/icons/icondark16.png"
   inkscape:export-xdpi="12"
   inkscape:export-ydpi="12"
   xmlns:inkscape="http://www.inkscape.org/namespaces/inkscape"
   xmlns:sodipodi="http://sodipodi.sourceforge.net/DTD/sodipodi-0.dtd"
   xmlns:xlink="http://www.w3.org/1999/xlink"
   xmlns="http://www.w3.org/2000/svg"
   xmlns:svg="http://www.w3.org/2000/svg"><defs
   id="defs9"><linearGradient
     id="linearGradient6971"
     inkscape:swatch="solid"><stop
       style="stop-color:#84e400;stop-opacity:1;"
       offset="0"
       id="stop6969" /></linearGradient><linearGradient
     id="linearGradient6905"
     inkscape:swatch="gradient"><stop
       style="stop-color:#84e400;stop-opacity:1;"
       offset="0"
       id="stop6901" /><stop
       style="stop-color:#ffffff;stop-opacity:0;"
       offset="1"
       id="stop6903" /></linearGradient><linearGradient
     inkscape:collect="always"
     xlink:href="#linearGradient6971"
     id="linearGradient6973"
     x1="183.37898"
     y1="440.99412"
     x2="337.51606"
     y2="440.99412"
     gradientUnits="userSpaceOnUse" /></defs><sodipodi:namedview
   id="namedview7"
   pagecolor="#ffffff"
   bordercolor="#999999"
   borderopacity="1"
   inkscape:pageshadow="0"
   inkscape:pageopacity="0"
   inkscape:pagecheckerboard="false"
   showgrid="false"
   inkscape:zoom="3.8050001"
   inkscape:cx="61.892245"
   inkscape:cy="72.01051"
   inkscape:window-width="2560"
   inkscape:window-height="1375"
   inkscape:window-x="0"
   inkscape:window-y="0"
   inkscape:window-maximized="1"
   inkscape:current-layer="Laag_1" />

<g
   style="overflow:hidden;opacity:1;fill:#000000;fill-opacity:1;stroke:none;stroke-width:22.0888;stroke-miterlimit:4;stroke-dasharray:none;stroke-opacity:1"
   id="g838"
   transform="matrix(0.13753582,0,0,0.13753582,-15.63324,3.2164423)"><path
     d="M 858.2,96 H 299.8 C 261.4,96 230,127.4 230,165.8 V 618 c 0,38.4 31.4,70 69.8,70 H 776.2 L 928,794 V 165.8 C 928,127.4 896.6,96 858.2,96 Z"
     id="path828"
     style="fill:#000000;fill-opacity:1;stroke:none;stroke-width:22.0888;stroke-miterlimit:4;stroke-dasharray:none;stroke-opacity:1" /></g><g
   id="g4"
   transform="matrix(0.32310457,0,0,0.32310457,-20.151784,-84.090949)"
   style="fill:#ffffff;fill-opacity:1">
	<path
   fill-rule="evenodd"
   clip-rule="evenodd"
   d="m 337.17898,445.43859 c 0.899,4.666 0,8.949 -2.7,12.85 -0.434,0.8 -1.017,1.616 -1.75,2.45 -0.066,0.066 -0.116,0.133 -0.15,0.2 l -22.2,35.2 c -0.567,0.867 -1.4,1.733 -2.5,2.601 -2.233,1.733 -4.667,2.583 -7.301,2.55 l -18.699,-0.251 -0.25,14.5 -18.35,-31.9 18.45,-34.149 -0.4,16.649 25.851,0.2 -20.201,-35.15 32.4,-18.7 16.449,28.75 c 0.634,1.366 1.085,2.767 1.351,4.2 z m -127.85,-42.35 16.1,-29 c 0.833,-1.2 1.8,-2.3 2.9,-3.3 3.533,-3.167 7.667,-4.6 12.4,-4.3 l 2.9,0.5 41.95,0.45 3.551,0.8 c 2.633,1 4.6,2.633 5.899,4.9 l 9.5,16.15 12.55,-7.3 -17.8,32.2 -38.8,1.9 14.5,-8.25 -13.1,-22.25 -19.75,35.55 z m -25.95,15.3 h 36.85 l 20.4,33 -14.25,-8.65 -12.9,22.3 h 40.45 l 0.05,37.45 h -31.4 c -1.833,0.1 -3.867,-0.25 -6.1,-1.05 -4.433,-1.534 -7.667,-4.434 -9.7,-8.7 -0.466,-0.8 -0.867,-1.717 -1.2,-2.75 l -19.7,-37.05 c -0.467,-0.934 -0.8,-2.084 -1,-3.45 -0.4,-2.767 0.083,-5.283 1.45,-7.55 l 9.55,-16.101 z"
   id="path2"
   style="fill:#ffffff;fill-opacity:1" />
</g></svg>
