<svg width="10" height="10" viewBox="0 0 10 10" fill="none" xmlns="http://www.w3.org/2000/svg">
<path d="M5 0.625C2.58398 0.625 0.625 2.63477 0.625 5.11133C0.625 7.09375 1.87891 8.77344 3.61719 9.36719C3.64453 9.37305 3.66797 9.375 3.69141 9.375C3.85352 9.375 3.91602 9.25586 3.91602 9.15234C3.91602 9.04492 3.91211 8.76367 3.91016 8.38867C3.74609 8.42578 3.59961 8.44141 3.46875 8.44141C2.62695 8.44141 2.43555 7.78711 2.43555 7.78711C2.23633 7.26953 1.94922 7.13086 1.94922 7.13086C1.56836 6.86328 1.94727 6.85547 1.97656 6.85547H1.97852C2.41797 6.89453 2.64844 7.32031 2.64844 7.32031C2.86719 7.70312 3.16016 7.81055 3.42187 7.81055C3.62695 7.81055 3.8125 7.74414 3.92188 7.69336C3.96094 7.4043 4.07422 7.20703 4.19922 7.09375C3.22852 6.98047 2.20703 6.5957 2.20703 4.87695C2.20703 4.38672 2.37695 3.98633 2.65625 3.67383C2.61133 3.56055 2.46094 3.10352 2.69922 2.48633C2.69922 2.48633 2.73047 2.47656 2.79687 2.47656C2.95508 2.47656 3.3125 2.53711 3.90234 2.94727C4.25195 2.84766 4.625 2.79883 4.99805 2.79687C5.36914 2.79883 5.74414 2.84766 6.09375 2.94727C6.68359 2.53711 7.04102 2.47656 7.19922 2.47656C7.26563 2.47656 7.29688 2.48633 7.29688 2.48633C7.53516 3.10352 7.38477 3.56055 7.33984 3.67383C7.61914 3.98828 7.78906 4.38867 7.78906 4.87695C7.78906 6.59961 6.76563 6.97852 5.79102 7.08984C5.94727 7.22852 6.08789 7.50195 6.08789 7.91992C6.08789 8.51953 6.08203 9.00391 6.08203 9.15039C6.08203 9.25586 6.14258 9.375 6.30469 9.375C6.32812 9.375 6.35547 9.37305 6.38281 9.36719C8.12305 8.77344 9.375 7.0918 9.375 5.11133C9.375 2.63477 7.41602 0.625 5 0.625Z" fill="black" fill-opacity="0.8"/>
</svg>
